                                   =======================================================
                                   Come joing us at the new movies site www.moviestorrent.net
                                   =======================================================

General:
Movie name                                 : The Rock (1996)
IMDB Rrating                                : 7.3/10 from 132,397 users
Format                                            : Matroska (MKV)
Subtitle(s)                                     : English (default), French, Spanish
File size                                          : 4.34 GiB
Duration                                         : 2h 16mn
Overall bit rate                            : 4 557 Kbps


Video:
Format                                             : AVC
Format/Info                                   : Advanced Video Codec
Format profile                               : High@L4.0
Format settings, CABAC            : Yes
Format settings, ReFrames      : 3 frames
Codec ID                                          : V_MPEG4/ISO/AVC
Duration                                          : 2h 16mn
Bit rate mode                                : Variable
Bit rate                                             : 3 059 Kbps
Maximum bit rate                       : 25.0 Mbps
Width                                               : 1 920 pixels
Height                                              : 1 080 pixels
Display aspect ratio                    : 16:9
Frame rate                                     : 23.976 fps
Color space                                    : YUV
Chroma subsampling                 : 4:2:0
Bit depth                                         : 8 bits
Scan type                                        : Progressive
Bits/(Pixel*Frame)                     : 0.062
Stream size                                    : 2.82 GiB (65%)
Writing library                              : x264 core 114 r1924 08d04a4

Audio
Format                                            : DTS
Format/Info                                  : Digital Theater Systems
Codec ID                                         : A_DTS
Duration                                         : 2h 16mn
Bit rate mode                               : Constant
Bit rate                                            : 1 510 Kbps
Channel(s)                                     : 6 channels
Channel positions                       : Front: L C R, Side: L R, LFE
Sampling rate                               : 48.0 KHz
Bit depth                                        : 16 bits
Compression mode                   : Lossy
Stream size                                   : 1.44 GiB (33%)
Language                                       : English

===================================================================
Storyline:
A renegade general and his group of U.S. Marines take over Alcatraz and threaten San Francisco Bay with biological weapons. A chemical weapons specialist and the only man to have ever escaped from the Rock attempt to prevent chaos.
